<svg id="Layer_1" data-name="Layer 1" xmlns="http://www.w3.org/2000/svg" viewBox="0 0 2150.35 1316.88"><defs><style>.cls-1{fill:#cc7161;}.cls-2{fill:#aebb8e;}.cls-3{fill:#afbb8e;}.cls-4{fill:#afbb8f;}.cls-5{fill:#afba8e;}.cls-6{fill:#b0bb8f;}.cls-7{fill:#b4ac85;}</style></defs><title>logo</title><path class="cls-1" d="M2463.8,1153.94c-3.89-7.56-9.76-13.22-16.28-18.38-6.69-9.38-14.32-17.63-25.63-21.54-23-7.94-45.42-19.12-69.08-23.23-59.06-10.27-118.64-8.51-178,0-28.77,6.68-61.08,5.85-85.38,22.4-52.18,35.53-111.8,61.54-152,113.41-10.09,13-21.45,25.13-32.2,37.65-26.91,31.32-61.14,55.38-85,89.85-50.9,73.42-86.09,154.21-114.62,238.16-13.25,39-18.74,79.54-15.3,120.9-1.49-10.58-.66-21.53-2.18-31.88-6-40.73-12-81.74-38.87-115.56-5.08-9.29-10.54-18.39-15.17-27.9-19.25-39.51-48.73-67.35-91.88-78.14-33.88-8.47-68.25-15-102.4-22.41-24.29-3.86-48.23-5.85-73.21-2.65-22.72,2.91-45.81,4.95-68.79,6.75-63.32,4.95-121.85,25-167.08,70.89-68.24,69.27-118.91,149-132,248.09-13.69,42.27-9.49,87.54-21.24,130a275.46,275.46,0,0,0-9.37,89.91c1.16,20.6,10.35,26.86,25.91,14.86,24.35-18.78,52-34.39,71.09-58.93,15.91-20.48,28.22-43.78,42.12-65.83,5.35-6.31,7.93-14.07,10.22-20.37-.1,3,1.32,6.51,4.23,10,5.35,20.66,20.62,25.67,38.65,11.8,17.35-13.34,34-27.63,50.92-41.5,37.7-37,78.16-70.74,121.82-105-4.57,10.24-11.83,16.16-7.79,25.55h0c-2,6.17-3.44,12.57-6.12,18.42-4.36,9.54-6.74,19.56,1,27.44,8.43,8.6,16.64-.46,24.56-3.47,33.44-12.71,66.79-25.68,100.18-38.55,36.73-8.5,73.76-11.89,111.65-12.4,52.83-.71,86.65,28.19,111.92,68.11,22.41,35.39,38,74.89,53,114.23,10.85,28.36,20.62,57.39,47.63,76.1,7.18,5,11.64,13.85,15.67,22,14.73,29.84,34.87,55.8,57.39,80,10.63,11.44,22,22.24,29.5,36.24h0c12.34,23,29.7,43.34,35,69.93,7.37,36.69,7.62,36.64-27.64,48.27-34.36,11.32-54.25,48.62-42.56,79.81,9.65,25.72,37,33.23,73.6,13.67,36.35-19.43,69.52-26.43,111.94-16.13,54.86,13.32,118.08-34.37,141.43-96.42,3.39-9,13.24-20.52,2.57-29.38-8.3-6.88-18.59.7-27.77,3.91-30.77,10.75-54.25,36.84-88.75,40.53-14.73,1.57-31.62,9.74-41.2-4.05-8.51-12.25,5.21-24,12.26-34.82,20-30.63,31.61-63.49,23.23-100.37-8.76-38.54-39.18-53.24-73.44-59.44-36.42-6.59-70.48-.81-93.23,33.47-11.13,5.46-14.67-5.12-19.37-10.4-21.28-23.86-39.74-50.07-60.39-74.5l0,0h0c-3.36-3.63-7-7.07-10-10.94-41.76-52.81-55.55-104.47-12.48-168.91,44.39-66.44,108.29-108,174.48-145.46,55.71-31.55,108-69.33,167-95.17,5.94-2.6,15.29-4.79,13.34-15.17-1.58-8.44-9.39-4.42-14.13-6.58-16.34-17.07-34.85-10.24-52.65-4-16.53,5.83-29.8,17.66-49.06,30.64,28.84-20.82,53.83-36.94,76.94-55.64,61.52-45.44,137.52-66.44,196.36-116.37,30-25.51,66.86-42,94.25-71,8.56-9.07,17.63-19.68,13.28-32.28-5-14.65-19.92-7.78-30.62-8.42-30.69-1.83-58.64,14.71-89.26,14.12-12.76-4.71-23.82,2.65-35.41,5,38.28-24.78,73-55,113-77.63,32.39-18.34,66.29-33.63,99.07-51.14C2471.48,1183.45,2474,1173.85,2463.8,1153.94Zm-484.58,1005.3c4,35.05-12.66,71.27-37.47,82.75,11.26-23.94,13.18-48.54,5.11-73.82Zm-969-185.4c-8.91,7.84-20.17,21.28-30,15.57-8.51-4.94-8.3-21.74-5.81-34.5q7.68-39.5,14.08-79.24c3.76-23.34,6.71-46.8,10-70.21q1.38,4.32,2.47,8.7c5.75,22.76,6.45,46.49,10.32,69.5,4.09,24.31,12.55,46.91,17.51,70.62C1022.65,1960.84,1017,1967.92,1010.22,1973.84Zm810-219c-34.37,28.49-53.75,68-77.12,104.52-.76-32.78,22.37-53.54,40-76.41,10.85-14.06,26-24.79,39.24-37C1821.73,1748.92,1822.14,1753.23,1820.26,1754.79ZM2106.7,1578c-41.93,18.25-79.13,44.66-118,68.13-8.24,5-16.23,11.48-27,9.57,30.43-29,68.63-46.35,103.35-68.9,10.21-6.63,20.64-12.92,31-19.37,6.2-.06,12.74-2.78,18.25,2C2114.7,1575.24,2110.16,1576.52,2106.7,1578Zm260.13-267.1c6.89-1.07,16.63-.17,19.47,6.22,1.78,4-3,12.74-7.14,17.22-8.72,9.45-15.88,21.46-30.27,23.91-6-23.21-22.15-28.14-43.15-23.35-9.47,2.16-18.56,6.41-28.1,7.78-6.89,1-17.59,5.43-17.93-8.77C2294.81,1323.46,2330.71,1316.56,2366.83,1310.93Z" transform="translate(-669.61 -1083.73)"/><path class="cls-1" d="M843.17,2035.7c-41.68,53.3-82.86,105-96,172.44-4.63,23.8-3.49,47.92-1.46,71.59,1.95,22.76,18.6,27.61,36.22,12.69,24.5-20.74,40.25-47.3,52.13-76.72,8.25-20.45,15.62-41.61,32-57.58,5.31-5.17,10.73-11.89,19-9.32,8.77,2.74,11.74,11.74,13,19.56a117.09,117.09,0,0,1,.51,29.7c-4.91,51.12,25.76,83.33,61.44,110.91,25.24,19.51,68.7,8,88.3-17.67,32.4-42.35,34.08-125.8-1.12-163.28-1.1-1.17-1.57-2.92-2.57-4.21-12.11-15.54-28.82-32.82-15.05-52.11,13.05-18.27,34.89-7.07,52.82-3.09,50.35,11.16,64,52.22,73.81,94.57,18.85,81.54-12.38,146.52-67,205.5-41.27,44.54-137.11,34.66-178.84-11.14-7.77-8.53-16.56-16.43-22.88-25.94-14.52-21.86-28.81-16.76-44.36-1.74-5.28,5.11-11.51,9.21-17.21,13.88-49.21,40.35-91.56,26.36-126.38-30.07-47.43-76.87-36.62-126.86,19.36-200.74,24.81-32.74,56.2-60.23,96.52-75.06C825.07,2034.32,833.36,2032.46,843.17,2035.7Z" transform="translate(-669.61 -1083.73)"/><path class="cls-1" d="M2436.07,2045.21c-18,18.07-39.76,22.25-62.07,22.89-49.47,1.42-85.46,26.15-106.73,68.08-16.48,32.47-30.14,68.05-20.12,106.59,7.4,28.46,33.06,52.91,55.08,53.25,31.3.49,56.7-16.36,67.7-47.38,5.85-16.48,12.73-32,24.79-44.53,5.48-5.68,13.66-16.39,21.83-5.05,8.42,11.68,14.33,8.93,24.7,3.1,29.1-16.33,44.7-13.42,66.12,11.22,7.8,9,13.79,13.84,23.49,2.53,22.95-26.78,44-30.29,79.59-14.07,24.25,11.07,36.18,34.19,30.79,65.76-5.36,31.4-19.93,57.09-52.13,69.19-35.83,13.48-64.26-2.51-75.35-46.6-11.13,40.11-26.22,75-73.35,65.25-33.37-6.88-30-38.29-33.34-65-18.07,5.18-23.69,22.61-33.14,34.63-23.79,30.27-48.18,59.47-91.28,50.22s-69-40.86-82.18-81.06c-20.88-63.92-24.84-129.13-.26-193,21.93-57,62-95.57,125.22-99.86C2367.5,1998.49,2406.15,2011.91,2436.07,2045.21Z" transform="translate(-669.61 -1083.73)"/><path class="cls-1" d="M1687.22,2159.44c24.28-11.37,40.65-26.44,63.32-26.7,13.08-.15,26.36.6,30.93,14.7,4.64,14.34,1,27.25-13.81,35.76-19.17,11-37.6,22.72-59.07,29.73-34.19,11.17-49,48.4-34.14,80.28,4,8.49,11.07,8.41,18.72,8.58,12.66.3,23.85-5.36,35.78-7.94,15.37-3.33,31.93-7.06,42.06,9.92,8.31,13.92,1.23,48.94-12.13,56.73-34.63,20.16-72.63,26.44-111.49,17.82-24.25-5.37-31.41-26.68-33.58-49.26-2.23-23.21,3-45.92,4.91-68.84,1.36-16.07-1.46-24.42-21.83-18.88-30.65,8.34-50,.59-56.7-18-7.19-19.78,5-45.36,28.66-60.25,34.06-21.39,67.72-43.07,85.79-81.46,5.14-10.92,15-3.91,22-2.92,10.82,1.54,16.11,9.69,16.7,21.11C1694.28,2118.65,1691.79,2137.15,1687.22,2159.44Z" transform="translate(-669.61 -1083.73)"/><path class="cls-1" d="M1241.34,2139.78c.78,23-2.06,46,4.88,68.74,3.73,12.22,10.81,15.09,22.13,13.61,66.31-8.64,102.49,22.61,106.9,92.95,1.08,17.31.7,34.76,0,52.1-.6,15.56-5.39,30.79-22.87,33.19-16.86,2.32-24.38-12.31-29.35-25.28-6.72-17.5-11.58-35.78-16.24-54-3-11.58-9.68-20.93-20.44-22.27-11.69-1.46-14.4,11.48-18.64,19.83-8.46,16.66-12.3,35.82-28.88,47.82-11.21,8.12-22.71,13.79-36.63,9.49-15.25-4.71-18.25-19-19.85-31.51-10.74-84-7.09-167.33,14.11-249.62,3.25-12.64,5.5-25.53,8.35-38.27,1.25-5.59-6.62-14.48,3.84-16.37,9.4-1.7,17.66,3.53,21.88,12.4,9.37,19.7,11.61,40.79,10.87,62.36C1241.13,2123.22,1241.37,2131.5,1241.34,2139.78Z" transform="translate(-669.61 -1083.73)"/><path class="cls-1" d="M2712.89,2021.6c-2.18,59.35,17.62,111,19.22,167.09,5.08-4.81,8.47-9.63,13.11-12.11,15.23-8.13,30-23.61,48.7-7.78,14.57,12.3,18.94,44.23,2.41,58.17-29.7,25.06-11.51,40.62,5.44,58.62a68.34,68.34,0,0,1,6.57,7.39c14.9,21.36,15.5,44.37,1.61,56-16,13.39-36.65,9-55.95-12-3.33-3.63-5.83-8-9.23-11.59-16.9-17.55-20.44-16.32-30.17,7.07-7.06,17-12.73,40.12-36.26,36.5-24.55-3.78-30.43-25.24-27.12-47.78,10.74-73.26,6.39-147.57,15.5-220.84C2670.31,2071.4,2687,2047.45,2712.89,2021.6Z" transform="translate(-669.61 -1083.73)"/><path class="cls-2" d="M2174.84,1090.84c-.58.59-1.1,1.63-1.75,1.71-65.25,8.83-114.42,51.35-169.68,81.06-4.31,2.32-8.85,4.86-12.1,8.38-59.17,64.17-127.42,120.76-176.7,193-55.56,81.48-94.66,172-115,269-5.78,27.56-9.72,56.78-8.27,86.18-7.35-56.74-19.41-112-42.07-164.47,10.46,2.32,16.51,10.67,23.24,17.71,11.28,11.8,16.38,5.56,19.82-6.1,33.15-112.34,84.57-216.54,144.25-316.64,21.9-36.73,54.09-65.41,91.81-86.61,68.88-38.72,140.43-70.6,219.37-82.57C2156.64,1090.22,2165.82,1091,2174.84,1090.84Z" transform="translate(-669.61 -1083.73)"/><path class="cls-1" d="M1419.47,2299.35c4.25-24.13,5.46-47.86,25.08-65.72,24-21.84,44.62-25.48,65.11-.68,30.42,36.84,65.81,71.08,79.84,119.45,5,17.36,3.27,31.15-13.44,39.38-15.63,7.69-31.1,8.43-44.78-6.06-11.87-12.56-16.72-28.28-21.1-43.91-4.26-15.24-7.61-18.56-19.6-5-11.39,12.82-20.16,35.21-42.07,28-20.1-6.56-23.16-27.81-26-46.78C1421.52,2311.57,1420.41,2305.12,1419.47,2299.35Z" transform="translate(-669.61 -1083.73)"/><path class="cls-2" d="M1439.86,1437.32c-56-.83-112,5.15-166.81,13.4-83.8,12.61-148,59.27-193.39,132-30,48.17-59.06,96.38-71.75,152.59-1.95,8.61-6,16.73-9.12,25.07-4.68-97.48,24-183.86,92.61-253.44,39.06-39.62,90.29-60.65,144.29-75.31,32.83-8.9,65.18-15.69,99.25-13.93C1370.84,1419.56,1406.24,1423.52,1439.86,1437.32Z" transform="translate(-669.61 -1083.73)"/><path class="cls-2" d="M2274.8,1317.94l-50.91,15.83c46.09-39.21,92.11-77.12,145.29-104.77,24.88-12.94,50.08-25.26,75.17-37.78,24.12-12,25.4-16.72,11.12-40.64-2.9-4.86-5.31-10-7.95-15,24,8.09,40.83,26.72,58.66,42.73,12.27,11,9.52,24.49-9.75,31.14-36.47,12.57-72.34,26.88-108.53,40.24C2345.82,1265.22,2308.81,1289.08,2274.8,1317.94Z" transform="translate(-669.61 -1083.73)"/><path class="cls-3" d="M1445,1754.75c23.89-9,48.46-14.12,74.13-14.27,23.61-.14,49-7,70.45-.57,37.68,11.25,66.41,38.82,87.11,72.35,23.39,37.9,37.86,80.22,55.56,120.94,9.41,21.65,13.9,46.18,38.73,59,8.37,4.3,13.28,16.44,18.4,25.76,17.88,32.56,36.2,64.51,64.33,90,8.72,7.88,17.38,17.75,18,31.22-54.57-54.69-110.32-109.22-146.61-178-20-37.86-37.64-78.7-49.3-119.68-23.76-83.53-109.26-104.57-177.58-94C1480.51,1750.08,1463.44,1757.38,1445,1754.75Z" transform="translate(-669.61 -1083.73)"/><path class="cls-4" d="M1211.32,1830.31c14.83-33.09,48.18-48.06,72.14-72.16,16.18-16.27,33.3-34.27,59.6-42.05-2,14.68-13.6,23.06-17.71,34.8-25.51,8.42-45.39,25.46-64.7,43.06C1245.43,1807.84,1228.52,1819.22,1211.32,1830.31Z" transform="translate(-669.61 -1083.73)"/><path class="cls-3" d="M2115.56,1560.9c-36.35-13.86-63.41,6.52-90.75,25-6.67,4.51-12,11.08-22,10.32,26.11-25.68,52.31-51.2,88-64.3.13,3.17-6.62,7.42.58,9.19,3.37.83,7.54-2.05,11.43-2.74,8.68-1.53,19.18-4.89,24.3,4.37C2132.73,1553,2116.83,1553,2115.56,1560.9Z" transform="translate(-669.61 -1083.73)"/><path class="cls-5" d="M1877.21,2088.08c-1.35,5.88,2,19.4-10.87,6.93-27.78-27-50.47-57.85-68.93-91.87C1827.6,2028.08,1851.71,2058.74,1877.21,2088.08Z" transform="translate(-669.61 -1083.73)"/><path class="cls-6" d="M1107.3,1870.37c2-11.12,4.56-22,12.33-31.77,4.59,7.4,1.91,14.55,2.12,21.41Z" transform="translate(-669.61 -1083.73)"/><path class="cls-2" d="M2444.83,1181.39a958.23,958.23,0,0,0-208.93,126.43c-11.84,9.42-33.4,19.45-27.2,33,7.16,15.6,23.35-5.25,36.48-5.07,4.83.07,9.69-1.13,14.53-1.76.34,14.2,11,9.76,17.93,8.77,9.54-1.37,18.63-5.62,28.1-7.78,21-4.79,37.12.14,43.15,23.35-59.48,45.08-118.89,89.4-187.16,122-47.16,22.51-94.47,47.22-135.35,81.27-10.11,8.43-19.81,17.41-29.07,26.76-5,5-12.25,11.49-6.58,18.92,6.88,9,15.39,1.92,22.1-1.91,8.53-4.87,15.92-11.67,24.18-17.08,17.9-11.73,35.39-25,58.94-20.77-10.33,6.45-20.76,12.74-31,19.37-34.72,22.55-72.92,39.9-103.35,68.9q-52.23,36.35-104.43,72.75c-10.77,7.55-21.53,14.94-34.81,17.4-13.23,12.23-28.39,23-39.24,37-17.64,22.87-40.77,43.63-40,76.41-3,16.67-6.73,33.23-7.64,50.46-17.59-29.8-11.06-63.13-4.59-92.09,15-67.36,39.37-132.16,70.27-194.47,33.38-67.32,68.94-133.22,114.46-193.1,63.11-83,143-145.08,238.75-186.78,6.21-2.7,14.91-2.74,17.65-14.87-44.4,11.63-81.43,34.41-116.8,59.13-66.67,46.59-126.44,100.78-170.71,170-43.57,68.1-82.85,138.44-114.67,213.06-16.22,38-27.15,77.58-40.24,116.52-6.25,18.61-13.89,37-13.85,57.59-10.71-57.85-18.7-116.39-10.65-174.47,15.44-111.44,64.37-210.21,125.35-303.36a219.13,219.13,0,0,1,44-49.46c31.23-25.81,55.81-58.35,82.2-88.93,14.07-16.32,27.43-33.59,46.71-43.75,30-15.79,56.1-38,85.34-53.89,38-20.67,80.91-32.51,124.64-35.34a894,894,0,0,1,111.62-.21c36,2.19,69.05,18.21,101.73,32,14.48,6.12,18.73,26.13,26.34,40.58C2457.53,1176.44,2451.57,1178.4,2444.83,1181.39Z" transform="translate(-669.61 -1083.73)"/><path class="cls-2" d="M1692.73,1800.18c-1.34,1.62-2.59,1.56-3.77-.18-13-45.88-37.22-86.13-64.49-124.42-7.85-11-11.36-23.68-18.89-34.45-47-67.22-108.79-104.8-193.18-110.38-103.05-6.82-180.85,39-252,104.72-20.31,18.76-40.2,38-57.89,59.5,16.41.73,24-10.77,32.53-19.79,45.09-47.74,93.34-91.19,154.5-117.7,110.48-47.91,250-12.66,313.06,96.48,18.53,32.07,37.85,63.68,56.94,95.42a98.41,98.41,0,0,1,13.81,38.52c-5.14-3.71-9-5.35-11.2-8.23-51.93-66.4-122.19-53.78-190.38-41.6-40.09,7.16-81,15.39-116.87,37.49-6.5.5-6.4-4.64-4.79-7.69,6.33-12-1.92-17.17-9.6-22.88l26.58-48.06c-36.16,7.52-59.69,28.84-83.75,49-32.95,27.55-63.38,57.79-93.6,88.27-15.22,15.35-34.12,25.19-57.43,33.74V1813.2l-6.82-2.85c-29.75,49.76-49.88,106.4-96.72,143.93-5-23.71-13.42-46.31-17.51-70.62-3.87-23-4.57-46.74-10.32-69.5a19.3,19.3,0,0,0-2.47-8.7c12.33-49.27,23.48-98.68,46.46-144.83,18.06-36.27,38-71.53,63.07-102.7,27.74-34.55,61.5-63.38,104.35-80.51,43.7-17.47,89.21-21.29,135.11-24.92,11.43-.91,22.73-3.52,34.16-4.57,50.58-4.65,99.5,4,147.54,19.19,33.07,13.73,62.64,32.48,86.15,60,38.33,55.34,55.44,118.16,62.57,183.9C1681.18,1741.09,1692.8,1769.64,1692.73,1800.18Z" transform="translate(-669.61 -1083.73)"/><path class="cls-3" d="M1941.75,2242c-8.35,7.67-16.65,13.53-20-3.76-5-26.18-10.66-52.13-23.33-77.62,15.85,10.3,32.53,5.93,48.41,7.56C1954.93,2193.45,1953,2218.05,1941.75,2242Z" transform="translate(-669.61 -1083.73)"/><path class="cls-7" d="M1689,1800c1.26.07,2.52.14,3.78.18,9.78,9.44,3.59,23.29,9.4,33.92C1690.9,1825.31,1686.84,1813.85,1689,1800Z" transform="translate(-669.61 -1083.73)"/></svg>