<svg id="Layer_1" data-name="Layer 1" xmlns="http://www.w3.org/2000/svg" viewBox="0 0 3058.17 1872.84"><defs><style>.cls-1{fill:#cc7161;}.cls-2{fill:#aebb8e;}.cls-3{fill:#afbb8e;}.cls-4{fill:#afbb8f;}.cls-5{fill:#afba8e;}.cls-6{fill:#b0bb8f;}.cls-7{fill:#b4ac85;}</style></defs><title>logo</title><path class="cls-1" d="M2551.65,101.06c-5.53-10.75-13.88-18.8-23.15-26.14-9.51-13.34-20.37-25.07-36.45-30.63-32.7-11.3-64.6-27.2-98.24-33-84-14.61-168.73-12.1-253.11.07-40.91,9.5-86.87,8.32-121.42,31.86-74.21,50.53-159,87.52-216.1,161.29-14.35,18.53-30.51,35.73-45.8,53.54-38.27,44.54-87,78.76-120.93,127.78-72.38,104.42-122.43,219.32-163,338.71-18.84,55.48-26.65,113.12-21.75,171.94-2.12-15.05-.94-30.62-3.1-45.34-8.51-57.92-17.09-116.25-55.28-164.35-7.23-13.21-15-26.15-21.58-39.68-27.38-56.19-69.3-95.78-130.67-111.12-48.18-12.05-97.06-21.35-145.63-31.87-34.54-5.49-68.59-8.32-104.12-3.77-32.31,4.13-65.15,7-97.83,9.6-90.05,7-173.29,35.52-237.62,100.81-97,98.52-169.11,211.87-187.71,352.83-19.47,60.12-13.49,124.5-30.21,184.83-11.7,42.26-15.75,84.65-13.32,127.87,1.65,29.29,14.72,38.2,36.85,21.13,34.63-26.71,74-48.91,101.1-83.81,22.63-29.13,40.13-62.26,59.9-93.62,7.61-9,11.28-20,14.54-29-.15,4.27,1.87,9.26,6,14.23,7.61,29.39,29.33,36.51,55,16.79,24.67-19,48.31-39.3,72.42-59C824,1010.34,881.56,962.37,943.66,913.7c-6.5,14.57-16.83,23-11.08,36.34v0c-2.85,8.77-4.9,17.87-8.71,26.19-6.2,13.57-9.58,27.82,1.43,39,12,12.23,23.66-.66,34.92-4.94,47.56-18.07,95-36.52,142.48-54.82,52.23-12.09,104.9-16.91,158.78-17.64,75.14-1,123.24,40.09,159.17,96.87,31.87,50.33,54,106.5,75.38,162.45,15.43,40.33,29.32,81.62,67.74,108.23,10.21,7.07,16.55,19.7,22.28,31.31,21,42.44,49.59,79.36,81.62,113.82,15.12,16.27,31.32,31.63,42,51.54v0a0,0,0,0,1,0,0c17.55,32.67,42.24,61.64,49.82,99.45,10.48,52.18,10.84,52.11-39.31,68.65-48.87,16.1-77.15,69.15-60.53,113.5,13.73,36.58,52.59,47.26,104.67,19.45,51.7-27.64,98.87-37.59,159.2-22.94,78,18.94,167.93-48.88,201.14-137.13,4.82-12.8,18.83-29.18,3.66-41.78-11.81-9.79-26.44,1-39.5,5.56-43.76,15.29-77.15,52.39-126.22,57.64-20.94,2.23-45,13.85-58.59-5.76-12.1-17.42,7.41-34.18,17.44-49.52,28.5-43.56,44.95-90.3,33-142.75-12.46-54.81-55.72-75.71-104.44-84.53-51.8-9.37-100.24-1.15-132.59,47.6-15.83,7.77-20.86-7.28-27.55-14.79-30.26-33.93-56.52-71.21-85.88-106l-.06-.06h0c-4.78-5.17-9.93-10.06-14.28-15.56-59.39-75.11-79-148.58-17.75-240.22,63.13-94.49,154-153.57,248.14-206.87,79.23-44.87,153.57-98.6,237.48-135.35,8.45-3.7,21.74-6.81,19-21.57-2.25-12-13.35-6.29-20.1-9.36-23.23-24.28-49.56-14.57-74.87-5.63-23.51,8.29-42.38,25.11-69.77,43.57,41-29.61,76.55-52.53,109.42-79.13,87.49-64.62,195.58-94.49,279.26-165.5,42.73-36.28,95.08-59.8,134-101,12.17-12.9,25.07-28,18.88-45.91-7.18-20.84-28.33-11.06-43.54-12-43.65-2.6-83.4,20.92-126.95,20.09-18.14-6.7-33.87,3.76-50.36,7.08,54.44-35.24,103.82-78.19,160.71-110.41,46.06-26.08,94.27-47.82,140.89-72.73C2562.58,143,2566.2,129.37,2551.65,101.06ZM1862.5,1530.77c5.74,49.85-18,101.36-53.29,117.69,16-34,18.74-69,7.26-105ZM484.41,1267.1c-12.67,11.15-28.69,30.26-42.68,22.14-12.11-7-11.81-30.91-8.27-49.06q10.94-56.17,20-112.69c5.35-33.2,9.54-66.56,14.25-99.85,1.31,4.09,2.47,8.22,3.51,12.37,8.18,32.37,9.17,66.11,14.68,98.84,5.82,34.57,17.85,66.71,24.9,100.43C502.08,1248.61,494,1258.68,484.41,1267.1Zm1152-311.53c-48.88,40.52-76.45,96.65-109.68,148.65-1.08-46.62,31.81-76.14,56.9-108.67,15.43-20,37-35.26,55.81-52.65C1638.52,947.23,1639.1,953.35,1636.43,955.57Zm407.36-251.38c-59.63,25.95-112.53,63.51-167.86,96.89-11.71,7.07-23.08,16.33-38.45,13.61,43.28-41.24,97.6-65.92,147-98,14.52-9.42,29.35-18.37,44-27.54,8.81-.09,18.11-4,26,2.88C2055.17,700.22,2048.71,702,2043.79,704.19Zm369.95-379.86c9.8-1.53,23.66-.25,27.69,8.84,2.54,5.72-4.26,18.12-10.15,24.49-12.4,13.44-22.58,30.52-43.05,34-8.57-33-31.5-40-61.37-33.21-13.46,3.07-26.39,9.11-40,11.06-9.8,1.41-25,7.73-25.5-12.47C2311.32,342.15,2362.38,332.33,2413.74,324.33Z" transform="translate(0 -1.22)"/><path class="cls-1" d="M246.83,1355.09c-59.28,75.79-117.84,149.34-136.49,245.23-6.59,33.85-5,68.16-2.08,101.81,2.78,32.37,26.45,39.27,51.51,18,34.84-29.49,57.24-67.26,74.13-109.11,11.74-29.09,22.21-59.17,45.55-81.89,7.54-7.35,15.26-16.9,27-13.25,12.47,3.9,16.7,16.7,18.52,27.82,2.26,13.76,2.08,28.26.73,42.23-7,72.71,36.64,118.51,87.38,157.73,35.9,27.76,97.71,11.33,125.59-25.12,46.07-60.23,48.45-178.92-1.6-232.21-1.57-1.67-2.23-4.15-3.66-6-17.23-22.1-41-46.68-21.39-74.11,18.55-26,49.61-10,75.11-4.4,71.61,15.87,91.06,74.28,105,134.51,26.79,116-17.62,208.36-95.34,292.24-58.69,63.36-195,49.3-254.34-15.84-11.06-12.13-23.55-23.36-32.54-36.89-20.65-31.09-41-23.84-63.09-2.47-7.51,7.26-16.37,13.09-24.48,19.74-70,57.38-130.21,37.49-179.73-42.77C-24.9,1641.08-9.53,1570,70.08,1464.92c35.29-46.57,79.94-85.66,137.28-106.75C221.09,1353.12,232.88,1350.47,246.83,1355.09Z" transform="translate(0 -1.22)"/><path class="cls-1" d="M2512.22,1368.61c-25.53,25.69-56.55,31.64-88.28,32.55-70.36,2-121.53,37.19-151.79,96.83-23.43,46.17-42.86,96.77-28.61,151.58,10.52,40.47,47,75.25,78.33,75.74,44.51.69,80.64-23.28,96.28-67.39,8.32-23.44,18.11-45.58,35.25-63.33,7.81-8.08,19.43-23.32,31.06-7.19,12,16.62,20.37,12.71,35.13,4.42,41.37-23.22,63.56-19.08,94,16,11.1,12.77,19.61,19.69,33.4,3.6,32.64-38.08,62.65-43.07,113.2-20,34.49,15.74,51.45,48.62,43.79,93.51-7.63,44.66-28.36,81.19-74.15,98.41-51,19.16-91.39-3.57-107.16-66.27-15.83,57-37.28,106.61-104.31,92.79-47.46-9.79-42.71-54.46-47.41-92.46-25.7,7.37-33.7,32.15-47.14,49.25-33.83,43.05-68.52,84.57-129.82,71.42s-98.19-58.1-116.87-115.28c-29.69-90.9-35.32-183.64-.36-274.51,31.18-81,88.16-135.91,178.07-142C2414.7,1302.15,2469.67,1321.25,2512.22,1368.61Z" transform="translate(0 -1.22)"/><path class="cls-1" d="M1447.22,1531.06c34.52-16.18,57.81-37.6,90.06-38,18.6-.21,37.48.85,44,20.91,6.6,20.39,1.46,38.75-19.64,50.85-27.26,15.64-53.48,32.31-84,42.28C1429,1623,1407.9,1676,1429.06,1721.3c5.64,12.08,15.75,12,26.62,12.21,18,.43,33.92-7.62,50.88-11.3,21.86-4.73,45.41-10,59.82,14.11,11.82,19.8,1.75,69.61-17.25,80.68-49.25,28.68-103.28,37.61-158.56,25.35-34.48-7.65-44.66-37.94-47.75-70.06-3.17-33,4.21-65.3,7-97.91,1.94-22.85-2.06-34.72-31-26.84-43.59,11.86-71,.84-80.63-25.55-10.22-28.13,7-64.51,40.76-85.68,48.44-30.42,96.31-61.26,122-115.85,7.31-15.53,21.35-5.57,31.26-4.16,15.39,2.19,22.92,13.78,23.75,30C1457.27,1473.05,1453.72,1499.36,1447.22,1531.06Z" transform="translate(0 -1.22)"/><path class="cls-1" d="M813.1,1503.1c1.11,32.65-2.93,65.46,6.94,97.77,5.31,17.37,15.38,21.45,31.47,19.35,94.31-12.29,145.76,32.16,152,132.19,1.55,24.61,1,49.43,0,74.09-.86,22.13-7.68,43.8-32.53,47.21-24,3.3-34.67-17.52-41.75-36-9.56-24.89-16.47-50.89-23.09-76.78-4.21-16.48-13.77-29.78-29.07-31.69-16.63-2.07-20.48,16.34-26.51,28.2-12,23.7-17.48,51-41.07,68-15.95,11.54-32.3,19.61-52.09,13.5-21.69-6.7-26-27-28.24-44.81-15.27-119.46-10.07-238,20.07-355,4.62-18,7.82-36.31,11.88-54.43,1.77-7.94-9.41-20.59,5.45-23.28,13.38-2.42,25.12,5,31.12,17.63,13.33,28,16.51,58,15.46,88.69C812.81,1479.55,813.14,1491.33,813.1,1503.1Z" transform="translate(0 -1.22)"/><path class="cls-1" d="M2905.9,1335c-3.09,84.41,25.06,157.79,27.33,237.62,7.23-6.84,12.05-13.69,18.65-17.22,21.65-11.56,42.59-33.57,69.26-11.06,20.72,17.49,26.93,62.91,3.43,82.73-42.24,35.64-16.38,57.76,7.74,83.37,3.21,3.41,6.68,6.69,9.34,10.51,21.19,30.37,22,63.09,2.28,79.66-22.71,19-52.11,12.82-79.56-17.09-4.74-5.16-8.29-11.44-13.13-16.47-24-25-29.07-23.22-42.91,10-10,24.15-18.11,57.07-51.56,51.91-34.92-5.37-43.28-35.89-38.58-68,15.28-104.19,9.09-209.87,22-314.07C2845.35,1405.86,2869,1371.79,2905.9,1335Z" transform="translate(0 -1.22)"/><path class="cls-2" d="M2140.7,11.33c-.82.84-1.56,2.31-2.48,2.43-92.81,12.55-162.73,73-241.32,115.28-6.13,3.29-12.59,6.9-17.21,11.92-84.15,91.26-181.21,171.74-251.3,274.52-79,115.89-134.62,244.7-163.51,382.61-8.21,39.2-13.82,80.76-11.76,122.57-10.45-80.7-27.61-159.25-59.82-233.9,14.86,3.3,23.47,15.17,33,25.18,16.05,16.78,23.3,7.92,28.19-8.67,47.15-159.77,120.28-308,205.15-450.32,31.14-52.23,76.93-93,130.57-123.18,98-55.06,199.72-100.4,312-117.42C2114.82,10.45,2127.87,11.59,2140.7,11.33Z" transform="translate(0 -1.22)"/><path class="cls-1" d="M1066.44,1730c6-34.32,7.76-68.06,35.67-93.46,34.12-31.06,63.45-36.24,92.59-1,43.26,52.39,93.59,101.08,113.54,169.88,7.16,24.68,4.65,44.3-19.1,56-22.24,10.94-44.24,12-63.7-8.62-16.87-17.86-23.77-40.22-30-62.44-6.07-21.68-10.82-26.41-27.88-7.19-16.19,18.24-28.67,50.07-59.83,39.9-28.58-9.33-32.93-39.56-37-66.53C1069.34,1747.41,1067.77,1738.24,1066.44,1730Z" transform="translate(0 -1.22)"/><path class="cls-2" d="M1095.43,504.08c-79.67-1.19-159.22,7.33-237.23,19.06-119.18,17.93-210.53,84.29-275,187.75-42.71,68.51-84,137.08-102,217-2.77,12.24-8.57,23.79-13,35.66-6.65-138.64,34.16-261.48,131.71-360.44,55.55-56.35,128.41-86.26,205.21-107.1,46.68-12.67,92.69-22.31,141.14-19.82C997.27,478.82,1047.62,484.45,1095.43,504.08Z" transform="translate(0 -1.22)"/><path class="cls-2" d="M2282.86,334.3l-72.4,22.51c65.55-55.76,131-109.68,206.62-149,35.38-18.4,71.22-35.93,106.92-53.73,34.29-17.11,36.11-23.78,15.8-57.8-4.12-6.91-7.55-14.23-11.3-21.36,34.07,11.51,58.07,38,83.42,60.77,17.45,15.68,13.54,34.83-13.87,44.29-51.86,17.88-102.87,38.22-154.34,57.23C2383.86,259.32,2331.23,293.25,2282.86,334.3Z" transform="translate(0 -1.22)"/><path class="cls-3" d="M1102.69,955.52c34-12.83,68.92-20.07,105.43-20.29,33.59-.2,69.62-9.94,100.2-.81,53.58,16,94.45,55.21,123.88,102.89,33.27,53.91,53.85,114.09,79,172,13.39,30.8,19.77,65.69,55.07,83.84,11.91,6.12,18.89,23.39,26.17,36.64,25.44,46.31,51.49,91.75,91.5,127.93,12.4,11.22,24.71,25.25,25.67,44.41-77.61-77.79-156.9-155.33-208.51-253.19-28.4-53.85-53.53-111.92-70.11-170.21C1397.21,959.92,1275.62,930,1178.45,945,1153.24,948.87,1129,959.26,1102.69,955.52Z" transform="translate(0 -1.22)"/><path class="cls-4" d="M770.4,1063c21.1-47.06,68.53-68.35,102.61-102.63,23-23.14,47.36-48.73,84.75-59.79-2.9,20.87-19.34,32.78-25.18,49.49-36.28,12-64.56,36.2-92,61.23C818.91,1031,794.86,1047.2,770.4,1063Z" transform="translate(0 -1.22)"/><path class="cls-3" d="M2056.39,679.83c-51.69-19.72-90.18,9.28-129.06,35.58-9.48,6.41-17,15.77-31.31,14.68,37.13-36.52,74.39-72.82,125.15-91.45.18,4.51-9.41,10.56.82,13.07,4.8,1.18,10.72-2.91,16.26-3.89,12.34-2.18,27.27-7,34.56,6.22C2080.82,668.53,2058.2,668.61,2056.39,679.83Z" transform="translate(0 -1.22)"/><path class="cls-5" d="M1717.43,1429.58c-1.94,8.36,2.78,27.59-15.47,9.85-39.5-38.4-71.77-82.28-98-130.66C1646.86,1344.24,1681.15,1387.85,1717.43,1429.58Z" transform="translate(0 -1.22)"/><path class="cls-6" d="M622.47,1120c2.9-15.82,6.49-31.36,17.53-45.18,6.54,10.52,2.72,20.69,3,30.45Q632.74,1112.57,622.47,1120Z" transform="translate(0 -1.22)"/><path class="cls-2" d="M2524.67,140.1a1362.77,1362.77,0,0,0-297.13,179.8c-16.84,13.4-47.5,27.66-38.68,46.86,10.18,22.19,33.2-7.46,51.88-7.21,6.87.1,13.78-1.6,20.66-2.5.49,20.2,15.7,13.88,25.5,12.47,13.57-1.95,26.5-8,40-11.06,29.87-6.81,52.8.2,61.37,33.21-84.59,64.11-169.08,127.14-266.17,173.49-67.07,32-134.36,67.15-192.49,115.58-14.38,12-28.18,24.76-41.35,38.06-7,7.12-17.42,16.34-9.36,26.9,9.79,12.8,21.89,2.73,31.43-2.71,12.14-6.93,22.65-16.6,34.39-24.29,25.46-16.69,50.33-35.49,83.83-29.54-14.7,9.17-29.53,18.12-44,27.54-49.38,32.07-103.7,56.75-147,98Q1763.2,866.38,1689,918.16c-15.32,10.73-30.62,21.24-49.5,24.74-18.82,17.39-40.38,32.65-55.81,52.65-25.09,32.53-58,62-56.9,108.67-4.2,23.71-9.57,47.26-10.87,71.76-25-42.38-15.73-89.78-6.53-131,21.39-95.79,56-188,99.94-276.57,47.47-95.74,98-189.46,162.78-274.62,89.76-118.1,203.43-206.33,339.55-265.63,8.83-3.84,21.2-3.9,25.1-21.15-63.15,16.54-115.81,48.94-166.11,84.09-94.82,66.26-179.82,143.33-242.78,241.77-62,96.85-117.83,196.89-163.08,303-23.07,54.12-38.61,110.33-57.23,165.71-8.89,26.47-19.75,52.68-19.7,81.91-15.23-82.28-26.59-165.53-15.14-248.13,22-158.49,91.54-299,178.27-431.43a311.56,311.56,0,0,1,62.59-70.34c44.41-36.71,79.37-83,116.9-126.48,20-23.21,39-47.77,66.43-62.22,42.64-22.45,79.78-54,121.37-76.64,54-29.39,115.07-46.23,177.26-50.26a1272,1272,0,0,1,158.74-.3c51.23,3.12,98.2,25.9,144.68,45.54,20.59,8.71,26.64,37.16,37.46,57.71C2542.74,133.06,2534.26,135.85,2524.67,140.1Z" transform="translate(0 -1.22)"/><path class="cls-2" d="M1455.06,1020.13c-1.91,2.3-3.69,2.21-5.37-.26-18.43-65.25-52.93-122.49-91.71-177-11.17-15.68-16.16-33.67-26.87-49-66.85-95.6-154.71-149-274.73-157-146.56-9.7-257.2,55.49-358.35,148.93-28.88,26.68-57.17,54-82.33,84.62,23.34,1,34.15-15.32,46.27-28.15C726.09,774.46,794.71,712.67,881.69,675c157.12-68.13,355.55-18,445.23,137.22,26.35,45.6,53.83,90.56,81,135.7a140,140,0,0,1,19.64,54.78c-7.31-5.27-12.73-7.61-15.93-11.7-73.85-94.44-173.78-76.49-270.76-59.17-57,10.19-115.22,21.89-166.2,53.32-9.25.71-9.11-6.6-6.82-10.93,9-17-2.73-24.42-13.65-32.54L992,873.29c-51.42,10.69-84.89,41-119.11,69.64-46.86,39.18-90.13,82.19-133.11,125.54-21.65,21.83-48.53,35.82-81.68,48v-77.81l-9.7-4.05c-42.31,70.77-70.93,151.32-137.55,204.69-7.05-33.72-19.08-65.86-24.9-100.43-5.51-32.73-6.5-66.47-14.68-98.84a27.38,27.38,0,0,0-3.51-12.37c17.53-70.08,33.39-140.35,66.07-206,25.69-51.58,54.12-101.73,89.7-146.06C663,626.47,711,585.47,771.91,561.1c62.15-24.84,126.88-30.27,192.15-35.44,16.26-1.29,32.33-5,48.59-6.5,71.93-6.61,141.5,5.69,209.82,27.3,47,19.52,89.09,46.19,122.52,85.26,54.52,78.7,78.85,168,89,261.53C1438.63,936.09,1455.16,976.69,1455.06,1020.13Z" transform="translate(0 -1.22)"/><path class="cls-3" d="M1809.21,1648.46c-11.88,10.91-23.68,19.24-28.4-5.35-7.14-37.23-15.16-74.14-33.18-110.39,22.54,14.65,46.26,8.43,68.84,10.75C1828,1579.43,1825.22,1614.41,1809.21,1648.46Z" transform="translate(0 -1.22)"/><path class="cls-7" d="M1449.7,1019.87c1.79.11,3.58.2,5.36.26,13.91,13.42,5.12,33.13,13.39,48.25C1452.46,1055.87,1446.67,1039.57,1449.7,1019.87Z" transform="translate(0 -1.22)"/></svg>